<svg id="Kid_avatar" height="512" viewBox="0 0 64 64" width="512" xmlns="http://www.w3.org/2000/svg" data-name="Kid avatar"><path d="m32.4 14a15.538 15.538 0 0 1 2.65.22l-2.05 4.78-2.14-4.98c.27-.01.55-.02.83-.02z" fill="#78b9eb"/><path d="m30.55 14.04-2.55 5.96-2.42-4.84a16.475 16.475 0 0 1 4.97-1.12z" fill="#78b9eb"/><path d="m44.28 43.05c3.98-6.5 6.72-14.8 6.72-20.55 0-10.77-9.61-19.5-19-19.5s-19 8.73-19 19.5c0 5.75 2.74 14.05 6.72 20.55a11.984 11.984 0 0 0 -5.29 9.35l-.43 8.6h36l-.43-8.6a11.984 11.984 0 0 0 -5.29-9.35zm-12.28 6.95c-3.31 0-10-6.69-10-10a2.96 2.96 0 0 1 .56-1.67 13.96 13.96 0 0 1 -4.56-10.33v-7l1-1.16a16.66 16.66 0 0 1 6.58-4.68 16.475 16.475 0 0 1 4.97-1.12c.1-.01.2-.01.31-.02.27-.01.55-.02.83-.02h.71a15.538 15.538 0 0 1 2.65.22 16.665 16.665 0 0 1 10.95 6.78v7a13.96 13.96 0 0 1 -4.56 10.33 2.96 2.96 0 0 1 .56 1.67c0 3.31-6.69 10-10 10z" fill="#78b9eb"/><g fill="#006df0"><path d="m45.6 42.78c3.85-6.57 6.4-14.61 6.4-20.28 0-9.68-8.55-20.5-20-20.5s-20 10.82-20 20.5c0 5.67 2.55 13.71 6.4 20.28a12.849 12.849 0 0 0 -4.97 9.57l-.43 8.6a1.025 1.025 0 0 0 .28.74.975.975 0 0 0 .72.31h36a.975.975 0 0 0 .72-.31 1.025 1.025 0 0 0 .28-.74l-.43-8.6a12.849 12.849 0 0 0 -4.97-9.57zm-30.55 17.22.38-7.55a10.888 10.888 0 0 1 4.85-8.57 1 1 0 0 0 .3-1.36c-3.94-6.41-6.58-14.46-6.58-20.02 0-10.59 9.5-18.5 18-18.5s18 7.91 18 18.5c0 5.56-2.64 13.61-6.58 20.02a1 1 0 0 0 .3 1.36 10.888 10.888 0 0 1 4.85 8.57l.38 7.55z"/><path d="m26 27a1 1 0 0 0 1-1v-2a1 1 0 0 0 -2 0v2a1 1 0 0 0 1 1z"/><path d="m38 27a1 1 0 0 0 1-1v-2a1 1 0 0 0 -2 0v2a1 1 0 0 0 1 1z"/><path d="m47 21a1 1 0 0 0 -.19-.58 17.716 17.716 0 0 0 -14.41-7.42h-.71a17.666 17.666 0 0 0 -13.45 6.19l-1 1.16a.969.969 0 0 0 -.24.65v7a14.9 14.9 0 0 0 4.33 10.52 3.738 3.738 0 0 0 -.33 1.48c0 3.32 5.12 8.93 9.06 10.54a1.857 1.857 0 0 0 -.05.34l-.25.12a4.979 4.979 0 0 0 -2.76 4.47v.53h2v-.53a2.988 2.988 0 0 1 1.66-2.68l.24-.12a2 2 0 0 0 2.2 0l.24.12a2.988 2.988 0 0 1 1.66 2.68v2.53h2v-2.53a4.979 4.979 0 0 0 -2.76-4.47l-.25-.12a1.857 1.857 0 0 0 -.05-.34c3.94-1.61 9.06-7.22 9.06-10.54a3.738 3.738 0 0 0 -.33-1.48 14.9 14.9 0 0 0 4.33-10.52zm-14.6-6c.4 0 .8.04 1.2.07l-.6 1.39-.63-1.46zm-3.46.26-1.01 2.36-.95-1.89a16.438 16.438 0 0 1 1.96-.47zm12.06 24.74c0 2.78-6.22 9-9 9s-9-6.22-9-9v-.03a14.729 14.729 0 0 0 2.13 1.35 6.995 6.995 0 0 0 13.74 0 14.729 14.729 0 0 0 2.13-1.35zm-13.42 2.33a14.914 14.914 0 0 0 8.84 0 4.994 4.994 0 0 1 -8.84 0zm17.42-14.33a13 13 0 0 1 -26 0v-6.63l.75-.88a15.948 15.948 0 0 1 5.35-4.05l2.01 4.01a.988.988 0 0 0 .89.55h.03a.994.994 0 0 0 .89-.61l1.79-4.18 1.37 3.18a1 1 0 0 0 1.84 0l1.73-4.03a15.743 15.743 0 0 1 9.35 5.97z"/><path d="m32 37c3.925 0 7-2.2 7-5h-2c0 1.626-2.29 3-5 3s-5-1.374-5-3h-2c0 2.8 3.075 5 7 5z"/></g></svg>